{
  "accessors": [
    {
      "bufferView": 0,
      "componentType": 5125,
      "count": 6516,
      "type": "SCALAR"
    },
    {
      "bufferView": 1,
      "componentType": 5126,
      "count": 1474,
      "max": [
        -0.0330713987350464,
        0.308441460132599,
        0.286858379840851
      ],
      "min": [
        -0.60421746969223,
        -0.00927719008177519,
        -0.242305546998978
      ],
      "type": "VEC3"
    },
    {
      "bufferView": 2,
      "componentType": 5126,
      "count": 1474,
      "type": "VEC3"
    },
    {
      "bufferView": 3,
      "componentType": 5126,
      "count": 1474,
      "type": "VEC2"
    },
    {
      "bufferView": 4,
      "componentType": 5125,
      "count": 6672,
      "type": "SCALAR"
    },
    {
      "bufferView": 5,
      "componentType": 5126,
      "count": 1254,
      "max": [
        1.23368763923645,
        0.431428670883179,
        0.445489853620529
      ],
      "min": [
        -1.2657915353775,
        -0.416491776704788,
        -0.445050477981567
      ],
      "type": "VEC3"
    },
    {
      "bufferView": 6,
      "componentType": 5126,
      "count": 1254,
      "type": "VEC3"
    },
    {
      "bufferView": 7,
      "componentType": 5126,
      "count": 1254,
      "type": "VEC2"
    },
    {
      "bufferView": 8,
      "componentType": 5125,
      "count": 4146,
      "type": "SCALAR"
    },
    {
      "bufferView": 9,
      "componentType": 5126,
      "count": 781,
      "max": [
        1.24136257171631,
        0.010335679166019,
        0.456706464290619
      ],
      "min": [
        -1.2668080329895,
        -0.311703741550446,
        -0.446503102779388
      ],
      "type": "VEC3"
    },
    {
      "bufferView": 10,
      "componentType": 5126,
      "count": 781,
      "type": "VEC3"
    },
    {
      "bufferView": 11,
      "componentType": 5126,
      "count": 781,
      "type": "VEC2"
    },
    {
      "bufferView": 12,
      "componentType": 5125,
      "count": 9384,
      "type": "SCALAR"
    },
    {
      "bufferView": 13,
      "componentType": 5126,
      "count": 1891,
      "max": [
        1.16554164886475,
        0.419222563505173,
        0.379548132419586
      ],
      "min": [
        -0.754232048988342,
        -0.0322330705821514,
        -0.325095057487488
      ],
      "type": "VEC3"
    },
    {
      "bufferView": 14,
      "componentType": 5126,
      "count": 1891,
      "type": "VEC3"
    },
    {
      "bufferView": 15,
      "componentType": 5126,
      "count": 1891,
      "type": "VEC2"
    },
    {
      "bufferView": 16,
      "componentType": 5125,
      "count": 1380,
      "type": "SCALAR"
    },
    {
      "bufferView": 17,
      "componentType": 5126,
      "count": 301,
      "max": [
        0.148669481277466,
        0.325324445962906,
        0.334392130374908
      ],
      "min": [
        0.0941426903009415,
        0.266511797904968,
        -0.256068795919418
      ],
      "type": "VEC3"
    },
    {
      "bufferView": 18,
      "componentType": 5126,
      "count": 301,
      "type": "VEC3"
    },
    {
      "bufferView": 19,
      "componentType": 5126,
      "count": 301,
      "type": "VEC2"
    },
    {
      "bufferView": 20,
      "componentType": 5125,
      "count": 1014,
      "type": "SCALAR"
    },
    {
      "bufferView": 21,
      "componentType": 5126,
      "count": 233,
      "max": [
        1.24957382678986,
        -0.175369381904602,
        0.462080448865891
      ],
      "min": [
        -1.26737773418427,
        -0.444870084524155,
        -0.461892366409302
      ],
      "type": "VEC3"
    },
    {
      "bufferView": 22,
      "componentType": 5126,
      "count": 233,
      "type": "VEC3"
    },
    {
      "bufferView": 23,
      "componentType": 5126,
      "count": 233,
      "type": "VEC2"
    },
    {
      "bufferView": 24,
      "componentType": 5125,
      "count": 8352,
      "type": "SCALAR"
    },
    {
      "bufferView": 25,
      "componentType": 5126,
      "count": 1592,
      "max": [
        1.24820113182068,
        -0.152804479002953,
        0.452733010053635
      ],
      "min": [
        -1.28009688854218,
        -0.50823438167572,
        -0.459484487771988
      ],
      "type": "VEC3"
    },
    {
      "bufferView": 26,
      "componentType": 5126,
      "count": 1592,
      "type": "VEC3"
    },
    {
      "bufferView": 27,
      "componentType": 5126,
      "count": 1592,
      "type": "VEC2"
    },
    {
      "bufferView": 28,
      "componentType": 5125,
      "count": 3360,
      "type": "SCALAR"
    },
    {
      "bufferView": 29,
      "componentType": 5126,
      "count": 603,
      "max": [
        1.23831725120544,
        0.215136215090752,
        0.39023020863533
      ],
      "min": [
        0.613343417644501,
        -0.103468857705593,
        -0.338247537612915
      ],
      "type": "VEC3"
    },
    {
      "bufferView": 30,
      "componentType": 5126,
      "count": 603,
      "type": "VEC3"
    },
    {
      "bufferView": 31,
      "componentType": 5126,
      "count": 603,
      "type": "VEC2"
    },
    {
      "bufferView": 32,
      "componentType": 5125,
      "count": 1848,
      "type": "SCALAR"
    },
    {
      "bufferView": 33,
      "componentType": 5126,
      "count": 342,
      "max": [
        0.200410842895508,
        0.507350206375122,
        0.135530009865761
      ],
      "min": [
        0.0249939151108265,
        0.371217101812363,
        -0.0609326735138893
      ],
      "type": "VEC3"
    },
    {
      "bufferView": 34,
      "componentType": 5126,
      "count": 342,
      "type": "VEC3"
    },
    {
      "bufferView": 35,
      "componentType": 5126,
      "count": 342,
      "type": "VEC2"
    },
    {
      "bufferView": 36,
      "componentType": 5125,
      "count": 912,
      "type": "SCALAR"
    },
    {
      "bufferView": 37,
      "componentType": 5126,
      "count": 164,
      "max": [
        0.316839635372162,
        0.515644431114197,
        0.249079883098602
      ],
      "min": [
        -0.71764600276947,
        -0.167851731181145,
        -0.24972178041935
      ],
      "type": "VEC3"
    },
    {
      "bufferView": 38,
      "componentType": 5126,
      "count": 164,
      "type": "VEC3"
    },
    {
      "bufferView": 39,
      "componentType": 5126,
      "count": 164,
      "type": "VEC2"
    },
    {
      "bufferView": 40,
      "componentType": 5125,
      "count": 2952,
      "type": "SCALAR"
    },
    {
      "bufferView": 41,
      "componentType": 5126,
      "count": 547,
      "max": [
        -0.492174208164215,
        0.0272196773439646,
        0.414385288953781
      ],
      "min": [
        -0.827406048774719,
        -0.17176641523838,
        -0.41467422246933
      ],
      "type": "VEC3"
    },
    {
      "bufferView": 42,
      "componentType": 5126,
      "count": 547,
      "type": "VEC3"
    },
    {
      "bufferView": 43,
      "componentType": 5126,
      "count": 547,
      "type": "VEC2"
    }
  ],
  "asset": {
    "generator": "Substance Painter 6.1.0",
    "version": "2.0"
  },
  "bufferViews": [
    {
      "buffer": 0,
      "byteLength": 26064,
      "target": 34963
    },
    {
      "buffer": 0,
      "byteLength": 17688,
      "byteOffset": 26064,
      "target": 34962
    },
    {
      "buffer": 0,
      "byteLength": 17688,
      "byteOffset": 43752,
      "target": 34962
    },
    {
      "buffer": 0,
      "byteLength": 11792,
      "byteOffset": 61440,
      "target": 34962
    },
    {
      "buffer": 0,
      "byteLength": 26688,
      "byteOffset": 73232,
      "target": 34963
    },
    {
      "buffer": 0,
      "byteLength": 15048,
      "byteOffset": 99920,
      "target": 34962
    },
    {
      "buffer": 0,
      "byteLength": 15048,
      "byteOffset": 114968,
      "target": 34962
    },
    {
      "buffer": 0,
      "byteLength": 10032,
      "byteOffset": 130016,
      "target": 34962
    },
    {
      "buffer": 0,
      "byteLength": 16584,
      "byteOffset": 140048,
      "target": 34963
    },
    {
      "buffer": 0,
      "byteLength": 9372,
      "byteOffset": 156632,
      "target": 34962
    },
    {
      "buffer": 0,
      "byteLength": 9372,
      "byteOffset": 166004,
      "target": 34962
    },
    {
      "buffer": 0,
      "byteLength": 6248,
      "byteOffset": 175376,
      "target": 34962
    },
    {
      "buffer": 0,
      "byteLength": 37536,
      "byteOffset": 181624,
      "target": 34963
    },
    {
      "buffer": 0,
      "byteLength": 22692,
      "byteOffset": 219160,
      "target": 34962
    },
    {
      "buffer": 0,
      "byteLength": 22692,
      "byteOffset": 241852,
      "target": 34962
    },
    {
      "buffer": 0,
      "byteLength": 15128,
      "byteOffset": 264544,
      "target": 34962
    },
    {
      "buffer": 0,
      "byteLength": 5520,
      "byteOffset": 279672,
      "target": 34963
    },
    {
      "buffer": 0,
      "byteLength": 3612,
      "byteOffset": 285192,
      "target": 34962
    },
    {
      "buffer": 0,
      "byteLength": 3612,
      "byteOffset": 288804,
      "target": 34962
    },
    {
      "buffer": 0,
      "byteLength": 2408,
      "byteOffset": 292416,
      "target": 34962
    },
    {
      "buffer": 0,
      "byteLength": 4056,
      "byteOffset": 294824,
      "target": 34963
    },
    {
      "buffer": 0,
      "byteLength": 2796,
      "byteOffset": 298880,
      "target": 34962
    },
    {
      "buffer": 0,
      "byteLength": 2796,
      "byteOffset": 301676,
      "target": 34962
    },
    {
      "buffer": 0,
      "byteLength": 1864,
      "byteOffset": 304472,
      "target": 34962
    },
    {
      "buffer": 0,
      "byteLength": 33408,
      "byteOffset": 306336,
      "target": 34963
    },
    {
      "buffer": 0,
      "byteLength": 19104,
      "byteOffset": 339744,
      "target": 34962
    },
    {
      "buffer": 0,
      "byteLength": 19104,
      "byteOffset": 358848,
      "target": 34962
    },
    {
      "buffer": 0,
      "byteLength": 12736,
      "byteOffset": 377952,
      "target": 34962
    },
    {
      "buffer": 0,
      "byteLength": 13440,
      "byteOffset": 390688,
      "target": 34963
    },
    {
      "buffer": 0,
      "byteLength": 7236,
      "byteOffset": 404128,
      "target": 34962
    },
    {
      "buffer": 0,
      "byteLength": 7236,
      "byteOffset": 411364,
      "target": 34962
    },
    {
      "buffer": 0,
      "byteLength": 4824,
      "byteOffset": 418600,
      "target": 34962
    },
    {
      "buffer": 0,
      "byteLength": 7392,
      "byteOffset": 423424,
      "target": 34963
    },
    {
      "buffer": 0,
      "byteLength": 4104,
      "byteOffset": 430816,
      "target": 34962
    },
    {
      "buffer": 0,
      "byteLength": 4104,
      "byteOffset": 434920,
      "target": 34962
    },
    {
      "buffer": 0,
      "byteLength": 2736,
      "byteOffset": 439024,
      "target": 34962
    },
    {
      "buffer": 0,
      "byteLength": 3648,
      "byteOffset": 441760,
      "target": 34963
    },
    {
      "buffer": 0,
      "byteLength": 1968,
      "byteOffset": 445408,
      "target": 34962
    },
    {
      "buffer": 0,
      "byteLength": 1968,
      "byteOffset": 447376,
      "target": 34962
    },
    {
      "buffer": 0,
      "byteLength": 1312,
      "byteOffset": 449344,
      "target": 34962
    },
    {
      "buffer": 0,
      "byteLength": 11808,
      "byteOffset": 450656,
      "target": 34963
    },
    {
      "buffer": 0,
      "byteLength": 6564,
      "byteOffset": 462464,
      "target": 34962
    },
    {
      "buffer": 0,
      "byteLength": 6564,
      "byteOffset": 469028,
      "target": 34962
    },
    {
      "buffer": 0,
      "byteLength": 4376,
      "byteOffset": 475592,
      "target": 34962
    }
  ],
  "buffers": [
    {
      "byteLength": 479968,
      "uri": "tenis.bin"
    }
  ],
  "images": [
    {
      "uri": "amortecimento_sola_baseColor.png"
    },
    {
      "uri": "amortecimento_sola_occlusionRoughnessMetallic.png"
    },
    {
      "uri": "amortecimento_sola_normal.png"
    },
    {
      "uri": "baseDoTennis_baseColor.png"
    },
    {
      "uri": "baseDoTennis_occlusionRoughnessMetallic.png"
    },
    {
      "uri": "baseDoTennis_normal.png"
    },
    {
      "uri": "cadarço_baseColor.png"
    },
    {
      "uri": "cadarço_occlusionRoughnessMetallic.png"
    },
    {
      "uri": "cadarço_normal.png"
    },
    {
      "uri": "elos de metal_baseColor.png"
    },
    {
      "uri": "elos de metal_occlusionRoughnessMetallic.png"
    },
    {
      "uri": "elos de metal_normal.png"
    },
    {
      "uri": "etiqueta_baseColor.png"
    },
    {
      "uri": "etiqueta_occlusionRoughnessMetallic.png"
    },
    {
      "uri": "etiqueta_normal.png"
    },
    {
      "uri": "lingua_baseColor.png"
    },
    {
      "uri": "lingua_occlusionRoughnessMetallic.png"
    },
    {
      "uri": "lingua_normal.png"
    },
    {
      "uri": "listraTopo_baseColor.png"
    },
    {
      "uri": "listraTopo_occlusionRoughnessMetallic.png"
    },
    {
      "uri": "listraTopo_normal.png"
    },
    {
      "uri": "patch_topo e traseiro_baseColor.png"
    },
    {
      "uri": "patch_topo e traseiro_occlusionRoughnessMetallic.png"
    },
    {
      "uri": "patch_topo e traseiro_normal.png"
    },
    {
      "uri": "principal_baseColor.png"
    },
    {
      "uri": "principal_occlusionRoughnessMetallic.png"
    },
    {
      "uri": "principal_normal.png"
    },
    {
      "uri": "sola_baseColor.png"
    },
    {
      "uri": "sola_occlusionRoughnessMetallic.png"
    },
    {
      "uri": "sola_normal.png"
    }
  ],
  "materials": [
    {
      "alphaMode": "OPAQUE",
      "name": "amortecimento_sola",
      "normalTexture": {
        "index": 2
      },
      "occlusionTexture": {
        "index": 1
      },
      "pbrMetallicRoughness": {
        "baseColorTexture": {
          "index": 0
        },
        "metallicRoughnessTexture": {
          "index": 1
        }
      }
    },
    {
      "alphaMode": "OPAQUE",
      "name": "baseDoTennis",
      "normalTexture": {
        "index": 5
      },
      "occlusionTexture": {
        "index": 4
      },
      "pbrMetallicRoughness": {
        "baseColorTexture": {
          "index": 3
        },
        "metallicRoughnessTexture": {
          "index": 4
        }
      }
    },
    {
      "alphaMode": "OPAQUE",
      "name": "cadarço",
      "normalTexture": {
        "index": 8
      },
      "occlusionTexture": {
        "index": 7
      },
      "pbrMetallicRoughness": {
        "baseColorTexture": {
          "index": 6
        },
        "metallicRoughnessTexture": {
          "index": 7
        }
      }
    },
    {
      "alphaMode": "OPAQUE",
      "name": "elos de metal",
      "normalTexture": {
        "index": 11
      },
      "occlusionTexture": {
        "index": 10
      },
      "pbrMetallicRoughness": {
        "baseColorTexture": {
          "index": 9
        },
        "metallicRoughnessTexture": {
          "index": 10
        }
      }
    },
    {
      "alphaMode": "OPAQUE",
      "name": "etiqueta",
      "normalTexture": {
        "index": 14
      },
      "occlusionTexture": {
        "index": 13
      },
      "pbrMetallicRoughness": {
        "baseColorTexture": {
          "index": 12
        },
        "metallicRoughnessTexture": {
          "index": 13
        }
      }
    },
    {
      "alphaMode": "OPAQUE",
      "name": "lingua",
      "normalTexture": {
        "index": 17
      },
      "occlusionTexture": {
        "index": 16
      },
      "pbrMetallicRoughness": {
        "baseColorTexture": {
          "index": 15
        },
        "metallicRoughnessTexture": {
          "index": 16
        }
      }
    },
    {
      "alphaMode": "OPAQUE",
      "name": "listraTopo",
      "normalTexture": {
        "index": 20
      },
      "occlusionTexture": {
        "index": 19
      },
      "pbrMetallicRoughness": {
        "baseColorTexture": {
          "index": 18
        },
        "metallicRoughnessTexture": {
          "index": 19
        }
      }
    },
    {
      "alphaMode": "OPAQUE",
      "name": "patch_topo e traseiro",
      "normalTexture": {
        "index": 23
      },
      "occlusionTexture": {
        "index": 22
      },
      "pbrMetallicRoughness": {
        "baseColorTexture": {
          "index": 21
        },
        "metallicRoughnessTexture": {
          "index": 22
        }
      }
    },
    {
      "alphaMode": "OPAQUE",
      "name": "principal",
      "normalTexture": {
        "index": 26
      },
      "occlusionTexture": {
        "index": 25
      },
      "pbrMetallicRoughness": {
        "baseColorTexture": {
          "index": 24
        },
        "metallicRoughnessTexture": {
          "index": 25
        }
      }
    },
    {
      "alphaMode": "OPAQUE",
      "name": "sola",
      "normalTexture": {
        "index": 29
      },
      "occlusionTexture": {
        "index": 28
      },
      "pbrMetallicRoughness": {
        "baseColorTexture": {
          "index": 27
        },
        "metallicRoughnessTexture": {
          "index": 28
        }
      }
    }
  ],
  "meshes": [
    {
      "name": "shoe_shoelace",
      "primitives": [
        {
          "attributes": {
            "NORMAL": 2,
            "POSITION": 1,
            "TEXCOORD_0": 3
          },
          "indices": 0,
          "material": 2,
          "mode": 4
        }
      ]
    },
    {
      "name": "shoe_body",
      "primitives": [
        {
          "attributes": {
            "NORMAL": 6,
            "POSITION": 5,
            "TEXCOORD_0": 7
          },
          "indices": 4,
          "material": 8,
          "mode": 4
        }
      ]
    },
    {
      "name": "shoe_base_patch",
      "primitives": [
        {
          "attributes": {
            "NORMAL": 10,
            "POSITION": 9,
            "TEXCOORD_0": 11
          },
          "indices": 8,
          "material": 1,
          "mode": 4
        }
      ]
    },
    {
      "name": "shoe_top_patch",
      "primitives": [
        {
          "attributes": {
            "NORMAL": 14,
            "POSITION": 13,
            "TEXCOORD_0": 15
          },
          "indices": 12,
          "material": 7,
          "mode": 4
        }
      ]
    },
    {
      "name": "shoe_holes",
      "primitives": [
        {
          "attributes": {
            "NORMAL": 18,
            "POSITION": 17,
            "TEXCOORD_0": 19
          },
          "indices": 16,
          "material": 3,
          "mode": 4
        }
      ]
    },
    {
      "name": "shoe_bottom_2",
      "primitives": [
        {
          "attributes": {
            "NORMAL": 22,
            "POSITION": 21,
            "TEXCOORD_0": 23
          },
          "indices": 20,
          "material": 0,
          "mode": 4
        }
      ]
    },
    {
      "name": "shoe_bottom_1",
      "primitives": [
        {
          "attributes": {
            "NORMAL": 26,
            "POSITION": 25,
            "TEXCOORD_0": 27
          },
          "indices": 24,
          "material": 9,
          "mode": 4
        }
      ]
    },
    {
      "name": "shoe_back_patch",
      "primitives": [
        {
          "attributes": {
            "NORMAL": 30,
            "POSITION": 29,
            "TEXCOORD_0": 31
          },
          "indices": 28,
          "material": 7,
          "mode": 4
        }
      ]
    },
    {
      "name": "shoe_label",
      "primitives": [
        {
          "attributes": {
            "NORMAL": 34,
            "POSITION": 33,
            "TEXCOORD_0": 35
          },
          "indices": 32,
          "material": 4,
          "mode": 4
        }
      ]
    },
    {
      "name": "shoe_flap",
      "primitives": [
        {
          "attributes": {
            "NORMAL": 38,
            "POSITION": 37,
            "TEXCOORD_0": 39
          },
          "indices": 36,
          "material": 5,
          "mode": 4
        }
      ]
    },
    {
      "name": "shoe_top_stripe",
      "primitives": [
        {
          "attributes": {
            "NORMAL": 42,
            "POSITION": 41,
            "TEXCOORD_0": 43
          },
          "indices": 40,
          "material": 6,
          "mode": 4
        }
      ]
    }
  ],
  "nodes": [
    {
      "children": [
        1,
        3,
        5,
        7,
        9,
        11,
        13,
        15,
        17,
        19,
        21
      ],
      "name": "RootNode"
    },
    {
      "children": [
        2
      ],
      "name": "shoe_shoelace"
    },
    {
      "mesh": 0,
      "name": "shoe_shoelace"
    },
    {
      "children": [
        4
      ],
      "name": "shoe_body"
    },
    {
      "mesh": 1,
      "name": "shoe_body"
    },
    {
      "children": [
        6
      ],
      "name": "shoe_base_patch"
    },
    {
      "mesh": 2,
      "name": "shoe_base_patch"
    },
    {
      "children": [
        8
      ],
      "name": "shoe_top_patch"
    },
    {
      "mesh": 3,
      "name": "shoe_top_patch"
    },
    {
      "children": [
        10
      ],
      "name": "shoe_holes"
    },
    {
      "mesh": 4,
      "name": "shoe_holes"
    },
    {
      "children": [
        12
      ],
      "name": "shoe_bottom_2"
    },
    {
      "mesh": 5,
      "name": "shoe_bottom_2"
    },
    {
      "children": [
        14
      ],
      "name": "shoe_bottom_1"
    },
    {
      "mesh": 6,
      "name": "shoe_bottom_1"
    },
    {
      "children": [
        16
      ],
      "name": "shoe_back_patch"
    },
    {
      "mesh": 7,
      "name": "shoe_back_patch"
    },
    {
      "children": [
        18
      ],
      "name": "shoe_label"
    },
    {
      "mesh": 8,
      "name": "shoe_label"
    },
    {
      "children": [
        20
      ],
      "name": "shoe_flap"
    },
    {
      "mesh": 9,
      "name": "shoe_flap"
    },
    {
      "children": [
        22
      ],
      "name": "shoe_top_stripe"
    },
    {
      "mesh": 10,
      "name": "shoe_top_stripe"
    }
  ],
  "samplers": [
    {
      "magFilter": 9729,
      "minFilter": 9985,
      "wrapS": 10497,
      "wrapT": 10497
    }
  ],
  "scene": 0,
  "scenes": [
    {
      "name": "Scene",
      "nodes": [
        0
      ]
    }
  ],
  "textures": [
    {
      "sampler": 0,
      "source": 0
    },
    {
      "sampler": 0,
      "source": 1
    },
    {
      "sampler": 0,
      "source": 2
    },
    {
      "sampler": 0,
      "source": 3
    },
    {
      "sampler": 0,
      "source": 4
    },
    {
      "sampler": 0,
      "source": 5
    },
    {
      "sampler": 0,
      "source": 6
    },
    {
      "sampler": 0,
      "source": 7
    },
    {
      "sampler": 0,
      "source": 8
    },
    {
      "sampler": 0,
      "source": 9
    },
    {
      "sampler": 0,
      "source": 10
    },
    {
      "sampler": 0,
      "source": 11
    },
    {
      "sampler": 0,
      "source": 12
    },
    {
      "sampler": 0,
      "source": 13
    },
    {
      "sampler": 0,
      "source": 14
    },
    {
      "sampler": 0,
      "source": 15
    },
    {
      "sampler": 0,
      "source": 16
    },
    {
      "sampler": 0,
      "source": 17
    },
    {
      "sampler": 0,
      "source": 18
    },
    {
      "sampler": 0,
      "source": 19
    },
    {
      "sampler": 0,
      "source": 20
    },
    {
      "sampler": 0,
      "source": 21
    },
    {
      "sampler": 0,
      "source": 22
    },
    {
      "sampler": 0,
      "source": 23
    },
    {
      "sampler": 0,
      "source": 24
    },
    {
      "sampler": 0,
      "source": 25
    },
    {
      "sampler": 0,
      "source": 26
    },
    {
      "sampler": 0,
      "source": 27
    },
    {
      "sampler": 0,
      "source": 28
    },
    {
      "sampler": 0,
      "source": 29
    }
  ]
}