{
    "asset": {
        "version": "2.0",
        "generator": "Open Asset Import Library (assimp v3.1.31193554)"
    },
    "accessors": [
        {
            "bufferView": 0,
            "byteOffset": 0,
            "componentType": 5126,
            "count": 65535,
            "type": "VEC3",
            "max": [
                710.3994140625,
                487.96734619140627,
                877.7146606445313
            ],
            "min": [
                -736.0006103515625,
                -135.2729034423828,
                -568.6853637695313
            ]
        },
        {
            "bufferView": 1,
            "byteOffset": 0,
            "componentType": 5126,
            "count": 65535,
            "type": "VEC3",
            "max": [
                1.0,
                1.0,
                1.0
            ],
            "min": [
                -1.0,
                -1.0,
                -1.0
            ]
        },
        {
            "bufferView": 2,
            "byteOffset": 0,
            "componentType": 5126,
            "count": 65535,
            "type": "VEC2",
            "max": [
                1.0,
                1.0
            ],
            "min": [
                0.0,
                0.0
            ]
        },
        {
            "bufferView": 3,
            "byteOffset": 0,
            "componentType": 5123,
            "count": 65535,
            "type": "SCALAR",
            "max": [
                65534.0
            ],
            "min": [
                0.0
            ]
        },
        {
            "bufferView": 4,
            "byteOffset": 0,
            "componentType": 5126,
            "count": 65535,
            "type": "VEC3",
            "max": [
                -231.2135772705078,
                120.59405517578125,
                -125.52581787109375
            ],
            "min": [
                -292.3011169433594,
                -82.07539367675781,
                -166.459228515625
            ]
        },
        {
            "bufferView": 5,
            "byteOffset": 0,
            "componentType": 5126,
            "count": 65535,
            "type": "VEC3",
            "max": [
                0.9999940395355225,
                0.9999248385429382,
                0.9999450445175171
            ],
            "min": [
                -0.999983012676239,
                -0.9999581575393677,
                -0.9999874830245972
            ]
        },
        {
            "bufferView": 6,
            "byteOffset": 0,
            "componentType": 5126,
            "count": 65535,
            "type": "VEC2",
            "max": [
                0.9941051006317139,
                0.9941058158874512
            ],
            "min": [
                0.005893923807889223,
                0.005894184112548828
            ]
        },
        {
            "bufferView": 7,
            "byteOffset": 0,
            "componentType": 5123,
            "count": 65535,
            "type": "SCALAR",
            "max": [
                65534.0
            ],
            "min": [
                0.0
            ]
        },
        {
            "bufferView": 8,
            "byteOffset": 0,
            "componentType": 5126,
            "count": 25695,
            "type": "VEC3",
            "max": [
                -229.45849609375,
                -61.624053955078128,
                -121.95843505859375
            ],
            "min": [
                -277.6481018066406,
                -81.68562316894531,
                -166.74514770507813
            ]
        },
        {
            "bufferView": 9,
            "byteOffset": 0,
            "componentType": 5126,
            "count": 25695,
            "type": "VEC3",
            "max": [
                0.9999217987060547,
                0.9997619390487671,
                0.9972841739654541
            ],
            "min": [
                -0.9999352097511292,
                -0.999993085861206,
                -0.9997880458831787
            ]
        },
        {
            "bufferView": 10,
            "byteOffset": 0,
            "componentType": 5126,
            "count": 25695,
            "type": "VEC2",
            "max": [
                0.9941060543060303,
                0.9939018487930298
            ],
            "min": [
                0.005893923807889223,
                0.005894184112548828
            ]
        },
        {
            "bufferView": 11,
            "byteOffset": 0,
            "componentType": 5123,
            "count": 25695,
            "type": "SCALAR",
            "max": [
                25694.0
            ],
            "min": [
                0.0
            ]
        },
        {
            "bufferView": 12,
            "byteOffset": 0,
            "componentType": 5126,
            "count": 65535,
            "type": "VEC3",
            "max": [
                399.9263916015625,
                120.04591369628906,
                -70.47152709960938
            ],
            "min": [
                -280.5912170410156,
                -96.44438171386719,
                -213.65615844726563
            ]
        },
        {
            "bufferView": 13,
            "byteOffset": 0,
            "componentType": 5126,
            "count": 65535,
            "type": "VEC3",
            "max": [
                1.0,
                1.0,
                1.0
            ],
            "min": [
                -0.9999281167984009,
                -1.0,
                -1.0
            ]
        },
        {
            "bufferView": 14,
            "byteOffset": 0,
            "componentType": 5126,
            "count": 65535,
            "type": "VEC2",
            "max": [
                1.0,
                1.0
            ],
            "min": [
                0.0,
                0.0
            ]
        },
        {
            "bufferView": 15,
            "byteOffset": 0,
            "componentType": 5123,
            "count": 65535,
            "type": "SCALAR",
            "max": [
                65534.0
            ],
            "min": [
                0.0
            ]
        },
        {
            "bufferView": 16,
            "byteOffset": 0,
            "componentType": 5126,
            "count": 65535,
            "type": "VEC3",
            "max": [
                360.8444519042969,
                120.64204406738281,
                -103.13803100585938
            ],
            "min": [
                303.3432922363281,
                -82.06013488769531,
                -181.11968994140626
            ]
        },
        {
            "bufferView": 17,
            "byteOffset": 0,
            "componentType": 5126,
            "count": 65535,
            "type": "VEC3",
            "max": [
                1.0,
                1.0,
                1.0
            ],
            "min": [
                -1.0,
                -1.0,
                -1.0
            ]
        },
        {
            "bufferView": 18,
            "byteOffset": 0,
            "componentType": 5126,
            "count": 65535,
            "type": "VEC2",
            "max": [
                0.9941051006317139,
                0.9941058158874512
            ],
            "min": [
                0.005893923807889223,
                0.005894184112548828
            ]
        },
        {
            "bufferView": 19,
            "byteOffset": 0,
            "componentType": 5123,
            "count": 65535,
            "type": "SCALAR",
            "max": [
                65534.0
            ],
            "min": [
                0.0
            ]
        },
        {
            "bufferView": 20,
            "byteOffset": 0,
            "componentType": 5126,
            "count": 25695,
            "type": "VEC3",
            "max": [
                710.3994140625,
                487.96734619140627,
                877.7146606445313
            ],
            "min": [
                -736.0006103515625,
                -135.2729034423828,
                -568.6853637695313
            ]
        },
        {
            "bufferView": 21,
            "byteOffset": 0,
            "componentType": 5126,
            "count": 25695,
            "type": "VEC3",
            "max": [
                1.0,
                1.0,
                1.0
            ],
            "min": [
                -1.0,
                -1.0,
                -1.0
            ]
        },
        {
            "bufferView": 22,
            "byteOffset": 0,
            "componentType": 5126,
            "count": 25695,
            "type": "VEC2",
            "max": [
                1.0,
                1.0
            ],
            "min": [
                0.0,
                0.0
            ]
        },
        {
            "bufferView": 23,
            "byteOffset": 0,
            "componentType": 5123,
            "count": 25695,
            "type": "SCALAR",
            "max": [
                25694.0
            ],
            "min": [
                0.0
            ]
        },
        {
            "bufferView": 24,
            "byteOffset": 0,
            "componentType": 5126,
            "count": 65535,
            "type": "VEC3",
            "max": [
                710.3994140625,
                331.80865478515627,
                877.7146606445313
            ],
            "min": [
                -736.0006103515625,
                -96.44435119628906,
                -568.6853637695313
            ]
        },
        {
            "bufferView": 25,
            "byteOffset": 0,
            "componentType": 5126,
            "count": 65535,
            "type": "VEC3",
            "max": [
                1.0,
                0.9999995827674866,
                1.0
            ],
            "min": [
                -1.0,
                -0.9999998211860657,
                -1.0
            ]
        },
        {
            "bufferView": 26,
            "byteOffset": 0,
            "componentType": 5126,
            "count": 65535,
            "type": "VEC2",
            "max": [
                1.0,
                1.0
            ],
            "min": [
                0.0,
                0.0
            ]
        },
        {
            "bufferView": 27,
            "byteOffset": 0,
            "componentType": 5123,
            "count": 65535,
            "type": "SCALAR",
            "max": [
                65534.0
            ],
            "min": [
                0.0
            ]
        },
        {
            "bufferView": 28,
            "byteOffset": 0,
            "componentType": 5126,
            "count": 65535,
            "type": "VEC3",
            "max": [
                -229.43690490722657,
                107.77070617675781,
                -121.90008544921875
            ],
            "min": [
                -292.3011169433594,
                -82.06449890136719,
                -166.74514770507813
            ]
        },
        {
            "bufferView": 29,
            "byteOffset": 0,
            "componentType": 5126,
            "count": 65535,
            "type": "VEC3",
            "max": [
                0.9999387860298157,
                0.9999248385429382,
                0.9990711212158203
            ],
            "min": [
                -0.999983012676239,
                -0.999993085861206,
                -0.9997880458831787
            ]
        },
        {
            "bufferView": 30,
            "byteOffset": 0,
            "componentType": 5126,
            "count": 65535,
            "type": "VEC2",
            "max": [
                0.9941060543060303,
                0.9941058158874512
            ],
            "min": [
                0.005893923807889223,
                0.005894184112548828
            ]
        },
        {
            "bufferView": 31,
            "byteOffset": 0,
            "componentType": 5123,
            "count": 65535,
            "type": "SCALAR",
            "max": [
                65534.0
            ],
            "min": [
                0.0
            ]
        },
        {
            "bufferView": 32,
            "byteOffset": 0,
            "componentType": 5126,
            "count": 25698,
            "type": "VEC3",
            "max": [
                440.4090576171875,
                338.0714111328125,
                -70.47152709960938
            ],
            "min": [
                -452.2000427246094,
                -96.44438171386719,
                -301.4720764160156
            ]
        },
        {
            "bufferView": 33,
            "byteOffset": 0,
            "componentType": 5126,
            "count": 25698,
            "type": "VEC3",
            "max": [
                0.9998294711112976,
                0.9999926686286926,
                0.9998294115066528
            ],
            "min": [
                -0.9998500943183899,
                -0.9999963641166687,
                -0.9998416304588318
            ]
        },
        {
            "bufferView": 34,
            "byteOffset": 0,
            "componentType": 5126,
            "count": 25698,
            "type": "VEC2",
            "max": [
                1.0,
                1.0
            ],
            "min": [
                0.0,
                0.0
            ]
        },
        {
            "bufferView": 35,
            "byteOffset": 0,
            "componentType": 5123,
            "count": 25698,
            "type": "SCALAR",
            "max": [
                25697.0
            ],
            "min": [
                0.0
            ]
        }
    ],
    "buffers": [
        {
            "byteLength": 15990148,
            "uri": "Store.bin"
        }
    ],
    "bufferViews": [
        {
            "buffer": 0,
            "byteOffset": 0,
            "byteLength": 786420,
            "target": 34962
        },
        {
            "buffer": 0,
            "byteOffset": 786420,
            "byteLength": 786420,
            "target": 34962
        },
        {
            "buffer": 0,
            "byteOffset": 1572840,
            "byteLength": 524280,
            "target": 34962
        },
        {
            "buffer": 0,
            "byteOffset": 2097120,
            "byteLength": 131070,
            "target": 34963
        },
        {
            "buffer": 0,
            "byteOffset": 2228192,
            "byteLength": 786420,
            "target": 34962
        },
        {
            "buffer": 0,
            "byteOffset": 3014612,
            "byteLength": 786420,
            "target": 34962
        },
        {
            "buffer": 0,
            "byteOffset": 3801032,
            "byteLength": 524280,
            "target": 34962
        },
        {
            "buffer": 0,
            "byteOffset": 4325312,
            "byteLength": 131070,
            "target": 34963
        },
        {
            "buffer": 0,
            "byteOffset": 4456384,
            "byteLength": 308340,
            "target": 34962
        },
        {
            "buffer": 0,
            "byteOffset": 4764724,
            "byteLength": 308340,
            "target": 34962
        },
        {
            "buffer": 0,
            "byteOffset": 5073064,
            "byteLength": 205560,
            "target": 34962
        },
        {
            "buffer": 0,
            "byteOffset": 5278624,
            "byteLength": 51390,
            "target": 34963
        },
        {
            "buffer": 0,
            "byteOffset": 5330016,
            "byteLength": 786420,
            "target": 34962
        },
        {
            "buffer": 0,
            "byteOffset": 6116436,
            "byteLength": 786420,
            "target": 34962
        },
        {
            "buffer": 0,
            "byteOffset": 6902856,
            "byteLength": 524280,
            "target": 34962
        },
        {
            "buffer": 0,
            "byteOffset": 7427136,
            "byteLength": 131070,
            "target": 34963
        },
        {
            "buffer": 0,
            "byteOffset": 7558208,
            "byteLength": 786420,
            "target": 34962
        },
        {
            "buffer": 0,
            "byteOffset": 8344628,
            "byteLength": 786420,
            "target": 34962
        },
        {
            "buffer": 0,
            "byteOffset": 9131048,
            "byteLength": 524280,
            "target": 34962
        },
        {
            "buffer": 0,
            "byteOffset": 9655328,
            "byteLength": 131070,
            "target": 34963
        },
        {
            "buffer": 0,
            "byteOffset": 9786400,
            "byteLength": 308340,
            "target": 34962
        },
        {
            "buffer": 0,
            "byteOffset": 10094740,
            "byteLength": 308340,
            "target": 34962
        },
        {
            "buffer": 0,
            "byteOffset": 10403080,
            "byteLength": 205560,
            "target": 34962
        },
        {
            "buffer": 0,
            "byteOffset": 10608640,
            "byteLength": 51390,
            "target": 34963
        },
        {
            "buffer": 0,
            "byteOffset": 10660032,
            "byteLength": 786420,
            "target": 34962
        },
        {
            "buffer": 0,
            "byteOffset": 11446452,
            "byteLength": 786420,
            "target": 34962
        },
        {
            "buffer": 0,
            "byteOffset": 12232872,
            "byteLength": 524280,
            "target": 34962
        },
        {
            "buffer": 0,
            "byteOffset": 12757152,
            "byteLength": 131070,
            "target": 34963
        },
        {
            "buffer": 0,
            "byteOffset": 12888224,
            "byteLength": 786420,
            "target": 34962
        },
        {
            "buffer": 0,
            "byteOffset": 13674644,
            "byteLength": 786420,
            "target": 34962
        },
        {
            "buffer": 0,
            "byteOffset": 14461064,
            "byteLength": 524280,
            "target": 34962
        },
        {
            "buffer": 0,
            "byteOffset": 14985344,
            "byteLength": 131070,
            "target": 34963
        },
        {
            "buffer": 0,
            "byteOffset": 15116416,
            "byteLength": 308376,
            "target": 34962
        },
        {
            "buffer": 0,
            "byteOffset": 15424792,
            "byteLength": 308376,
            "target": 34962
        },
        {
            "buffer": 0,
            "byteOffset": 15733168,
            "byteLength": 205584,
            "target": 34962
        },
        {
            "buffer": 0,
            "byteOffset": 15938752,
            "byteLength": 51396,
            "target": 34963
        }
    ],
    "materials": [
        {
            "name": "DefaultMaterial",
            "pbrMetallicRoughness": {
                "baseColorFactor": [
                    0.6000000238418579,
                    0.6000000238418579,
                    0.6000000238418579,
                    1.0
                ],
                "metallicFactor": 0.0
            }
        }
    ],
    "meshes": [
        {
            "name": "loja_completa",
            "primitives": [
                {
                    "mode": 4,
                    "material": 0,
                    "indices": 3,
                    "attributes": {
                        "POSITION": 0,
                        "NORMAL": 1,
                        "TEXCOORD_0": 2
                    }
                },
                {
                    "mode": 4,
                    "material": 0,
                    "indices": 7,
                    "attributes": {
                        "POSITION": 4,
                        "NORMAL": 5,
                        "TEXCOORD_0": 6
                    }
                },
                {
                    "mode": 4,
                    "material": 0,
                    "indices": 11,
                    "attributes": {
                        "POSITION": 8,
                        "NORMAL": 9,
                        "TEXCOORD_0": 10
                    }
                },
                {
                    "mode": 4,
                    "material": 0,
                    "indices": 15,
                    "attributes": {
                        "POSITION": 12,
                        "NORMAL": 13,
                        "TEXCOORD_0": 14
                    }
                },
                {
                    "mode": 4,
                    "material": 0,
                    "indices": 19,
                    "attributes": {
                        "POSITION": 16,
                        "NORMAL": 17,
                        "TEXCOORD_0": 18
                    }
                },
                {
                    "mode": 4,
                    "material": 0,
                    "indices": 23,
                    "attributes": {
                        "POSITION": 20,
                        "NORMAL": 21,
                        "TEXCOORD_0": 22
                    }
                },
                {
                    "mode": 4,
                    "material": 0,
                    "indices": 27,
                    "attributes": {
                        "POSITION": 24,
                        "NORMAL": 25,
                        "TEXCOORD_0": 26
                    }
                },
                {
                    "mode": 4,
                    "material": 0,
                    "indices": 31,
                    "attributes": {
                        "POSITION": 28,
                        "NORMAL": 29,
                        "TEXCOORD_0": 30
                    }
                },
                {
                    "mode": 4,
                    "material": 0,
                    "indices": 35,
                    "attributes": {
                        "POSITION": 32,
                        "NORMAL": 33,
                        "TEXCOORD_0": 34
                    }
                }
            ]
        }
    ],
    "nodes": [
        {
            "name": "RootNode",
            "children": [
                1
            ]
        },
        {
            "name": "loja_completa",
            "matrix": [
                1.0,
                0.0,
                0.0,
                0.0,
                0.0,
                1.0,
                0.0,
                0.0,
                0.0,
                0.0,
                1.0,
                0.0,
                12.800616264343262,
                92.20771026611328,
                -154.5146484375,
                1.0
            ],
            "mesh": 0
        }
    ],
    "scenes": [
        {
            "nodes": [
                0
            ]
        }
    ],
    "scene": 0
}
