{"accessors" : [{"bufferView" : 0, "byteOffset" : 0, "componentType" : 5123, "count" : 8766, "type" : "SCALAR", "max" : [4591], "min" : [0]}, {"bufferView" : 1, "byteOffset" : 0, "componentType" : 5126, "count" : 4592, "type" : "VEC3", "max" : [73.8281326293945, 29.3359394073486, 27.8906307220459], "min" : [0.390624612569809, 5.82031202316284, 0]}, {"bufferView" : 1, "byteOffset" : 12, "componentType" : 5126, "count" : 4592, "type" : "VEC3", "max" : [1.00000441074371, 1.00000441074371, 1.00000441074371], "min" : [-1.00000441074371, -1.00000441074371, -1.00000441074371]}, {"bufferView" : 1, "byteOffset" : 24, "componentType" : 5126, "count" : 4592, "type" : "VEC2", "max" : [3.60597205162048, 0.905388593673706], "min" : [-2.58566093444824, -1.25330698490143]}, {"bufferView" : 0, "byteOffset" : 17532, "componentType" : 5123, "count" : 1362, "type" : "SCALAR", "max" : [473], "min" : [0]}, {"bufferView" : 2, "byteOffset" : 0, "componentType" : 5126, "count" : 474, "type" : "VEC3", "max" : [74.21875, 35.15625, 28.75], "min" : [0, 0, 27.8906307220459]}, {"bufferView" : 2, "byteOffset" : 12, "componentType" : 5126, "count" : 474, "type" : "VEC3", "max" : [1.00000441074371, 1.00000441074371, 1.00000441074371], "min" : [-1.00000441074371, -1.00000441074371, -1.00000441074371]}, {"bufferView" : 2, "byteOffset" : 24, "componentType" : 5126, "count" : 474, "type" : "VEC2", "max" : [3.64593005180359, 0.2421875], "min" : [-2.47386193275452, -3.43229198455811]}, {"bufferView" : 0, "byteOffset" : 20256, "componentType" : 5123, "count" : 60, "type" : "SCALAR", "max" : [39], "min" : [0]}, {"bufferView" : 3, "byteOffset" : 0, "componentType" : 5126, "count" : 40, "type" : "VEC3", "max" : [72.1875, 21.9921894073486, 27.8906307220459], "min" : [2.03125190734863, 13.1640596389771, 25.15625]}, {"bufferView" : 3, "byteOffset" : 12, "componentType" : 5126, "count" : 40, "type" : "VEC3", "max" : [1.00000441074371, 1.00000441074371, 1.00000441074371], "min" : [-1.00000441074371, -1.00000441074371, -1.00000441074371]}, {"bufferView" : 3, "byteOffset" : 24, "componentType" : 5126, "count" : 40, "type" : "VEC2", "max" : [3.07171106338501, -0.838541686534882], "min" : [-1.89964294433594, -3.26822900772095]}], "asset" : {"generator" : "Aspose.3D 20.2.1", "version" : "2.0"}, "buffers" : [{"uri" : "Table.bin", "byteLength" : 183784}], "bufferViews" : [{"buffer" : 0, "byteOffset" : 0, "byteLength" : 20376, "target" : 34963}, {"buffer" : 0, "byteOffset" : 20380, "byteLength" : 146944, "byteStride" : 32, "target" : 34962}, {"buffer" : 0, "byteOffset" : 167328, "byteLength" : 15168, "byteStride" : 32, "target" : 34962}, {"buffer" : 0, "byteOffset" : 182500, "byteLength" : 1280, "byteStride" : 32, "target" : 34962}], "cameras" : [{"perspective" : {"aspectRatio" : 0, "yfov" : 0.610865238198015, "zfar" : 1000, "znear" : 1}, "type" : "perspective"}], "images" : [{"uri" : "model/KMSO1_KinnarpsMain_KMSO1.jpg"}, {"uri" : "model/KMSO1_KinnarpsMain_KMSO1.jpg"}, {"uri" : "model/KMSO1_KinnarpsMain_KMSO1.jpg"}], "materials" : [{"pbrMetallicRoughness" : {"baseColorFactor" : [0.8, 0.8, 0.8, 1], "baseColorTexture" : {"index" : 0, "texCoord" : 0}, "metallicFactor" : 0, "roughnessFactor" : 0}, "emissiveFactor" : [0, 0, 0], "alphaMode" : "OPAQUE", "doubleSided" : false}, {"pbrMetallicRoughness" : {"baseColorFactor" : [0.8, 0.8, 0.8, 1], "baseColorTexture" : {"index" : 1, "texCoord" : 0}, "metallicFactor" : 0, "roughnessFactor" : 0}, "emissiveFactor" : [0, 0, 0], "alphaMode" : "OPAQUE", "doubleSided" : false}, {"pbrMetallicRoughness" : {"baseColorFactor" : [0.8, 0.8, 0.8, 1], "baseColorTexture" : {"index" : 2, "texCoord" : 0}, "metallicFactor" : 0, "roughnessFactor" : 0}, "emissiveFactor" : [0, 0, 0], "alphaMode" : "OPAQUE", "doubleSided" : false}], "meshes" : [{"primitives" : [{"attributes" : {"POSITION" : 1, "NORMAL" : 2, "TEXCOORD_0" : 3}, "indices" : 0, "material" : 0, "mode" : 4}, {"attributes" : {"POSITION" : 5, "NORMAL" : 6, "TEXCOORD_0" : 7}, "indices" : 4, "material" : 1, "mode" : 4}, {"attributes" : {"POSITION" : 9, "NORMAL" : 10, "TEXCOORD_0" : 11}, "indices" : 8, "material" : 2, "mode" : 4}]}], "nodes" : [{"camera" : 0, "matrix" : [0.7328944, -0.6803424, 5.551115E-17, 0, 0.2703419, 0.291224, 0.9176621, 0, -0.6243245, -0.6725495, 0.3973615, 0, -47.22249, -52.67014, 55.33538, 1], "name" : "skp_camera_Last_Saved_SketchUp_View"}, {"mesh" : 0, "name" : "OK_NC_Care___Kinnarps___Enok"}, {"children" : [1], "matrix" : [1, 0, 0, 0, 0, 1, 0, 0, 0, 0, 1, 0, 4.596088, 4.643495, 0, 1], "name" : "instance_0"}, {"children" : [0, 2], "name" : "SketchUp"}], "samplers" : [{"magFilter" : 9729, "minFilter" : 9987, "wrapS" : 10497, "wrapT" : 10497}, {"magFilter" : 9729, "minFilter" : 9987, "wrapS" : 10497, "wrapT" : 10497}, {"magFilter" : 9729, "minFilter" : 9987, "wrapS" : 10497, "wrapT" : 10497}], "scene" : 0, "scenes" : [{"nodes" : [3]}], "textures" : [{"sampler" : 0, "source" : 0}, {"sampler" : 1, "source" : 1}, {"sampler" : 2, "source" : 2}]}
