{
    "asset": {
        "version": "2.0",
        "generator": "Open Asset Import Library (assimp v3.1.31193554)"
    },
    "accessors": [
        {
            "bufferView": 0,
            "byteOffset": 0,
            "componentType": 5126,
            "count": 9903,
            "type": "VEC3",
            "max": [
                22.683696746826173,
                39.91522216796875,
                50.0352668762207
            ],
            "min": [
                -17.316299438476564,
                -0.08477592468261719,
                -49.9647331237793
            ]
        },
        {
            "bufferView": 1,
            "byteOffset": 0,
            "componentType": 5126,
            "count": 9903,
            "type": "VEC3",
            "max": [
                0.999990701675415,
                0.9999986290931702,
                0.9998176097869873
            ],
            "min": [
                -0.999691903591156,
                -0.999997079372406,
                -0.9995007514953613
            ]
        },
        {
            "bufferView": 2,
            "byteOffset": 0,
            "componentType": 5126,
            "count": 9903,
            "type": "VEC2",
            "max": [
                0.9980000257492065,
                0.9599000215530396
            ],
            "min": [
                0.0020000000949949028,
                0.001999974250793457
            ]
        },
        {
            "bufferView": 3,
            "byteOffset": 0,
            "componentType": 5123,
            "count": 54270,
            "type": "SCALAR",
            "max": [
                9902.0
            ],
            "min": [
                0.0
            ]
        }
    ],
    "buffers": [
        {
            "byteLength": 425436,
            "uri": "Tennis.bin"
        }
    ],
    "bufferViews": [
        {
            "buffer": 0,
            "byteOffset": 0,
            "byteLength": 118836,
            "target": 34962
        },
        {
            "buffer": 0,
            "byteOffset": 118836,
            "byteLength": 118836,
            "target": 34962
        },
        {
            "buffer": 0,
            "byteOffset": 237672,
            "byteLength": 79224,
            "target": 34962
        },
        {
            "buffer": 0,
            "byteOffset": 316896,
            "byteLength": 108540,
            "target": 34963
        }
    ],
    "materials": [
        {
            "name": "Standardmaterial",
            "pbrMetallicRoughness": {
                "metallicFactor": 0.0
            }
        }
    ],
    "meshes": [
        {
            "name": "zapatillas_LO_02",
            "primitives": [
                {
                    "mode": 4,
                    "material": 0,
                    "indices": 3,
                    "attributes": {
                        "POSITION": 0,
                        "NORMAL": 1,
                        "TEXCOORD_0": 2
                    }
                }
            ]
        }
    ],
    "nodes": [
        {
            "name": "root",
            "children": [
                1
            ]
        },
        {
            "name": "zapatillas_LO_02",
            "mesh": 0
        }
    ],
    "scenes": [
        {
            "nodes": [
                0
            ]
        }
    ],
    "scene": 0
}
