{
    "asset": {
        "version": "2.0",
        "generator": "Open Asset Import Library (assimp v3.1.31193554)"
    },
    "accessors": [
        {
            "bufferView": 0,
            "byteOffset": 0,
            "componentType": 5126,
            "count": 65535,
            "type": "VEC3",
            "max": [
                22.902633666992189,
                39.12974548339844,
                50.0352668762207
            ],
            "min": [
                -14.885601043701172,
                -0.06482887268066406,
                -43.17311477661133
            ]
        },
        {
            "bufferView": 1,
            "byteOffset": 0,
            "componentType": 5126,
            "count": 65535,
            "type": "VEC3",
            "max": [
                0.9999499320983887,
                0.99994957447052,
                0.9998176097869873
            ],
            "min": [
                -0.9999781250953674,
                -0.9999946355819702,
                -0.9998816847801209
            ]
        },
        {
            "bufferView": 2,
            "byteOffset": 0,
            "componentType": 5126,
            "count": 65535,
            "type": "VEC2",
            "max": [
                0.9925000071525574,
                0.9599000215530396
            ],
            "min": [
                0.04989999905228615,
                0.022599995136260988
            ]
        },
        {
            "bufferView": 3,
            "byteOffset": 0,
            "componentType": 5123,
            "count": 65535,
            "type": "SCALAR",
            "max": [
                65534.0
            ],
            "min": [
                0.0
            ]
        },
        {
            "bufferView": 4,
            "byteOffset": 0,
            "componentType": 5126,
            "count": 65535,
            "type": "VEC3",
            "max": [
                20.872644424438478,
                40.14259338378906,
                49.06803894042969
            ],
            "min": [
                -14.661787033081055,
                -0.07979011535644531,
                -49.9647331237793
            ]
        },
        {
            "bufferView": 5,
            "byteOffset": 0,
            "componentType": 5126,
            "count": 65535,
            "type": "VEC3",
            "max": [
                0.999990701675415,
                0.9999511241912842,
                0.9994027614593506
            ],
            "min": [
                -0.9999064207077026,
                -0.9999964237213135,
                -0.9989498257637024
            ]
        },
        {
            "bufferView": 6,
            "byteOffset": 0,
            "componentType": 5126,
            "count": 65535,
            "type": "VEC2",
            "max": [
                0.9847999811172485,
                0.9063999652862549
            ],
            "min": [
                0.0020000000949949028,
                0.006200015544891357
            ]
        },
        {
            "bufferView": 7,
            "byteOffset": 0,
            "componentType": 5123,
            "count": 65535,
            "type": "SCALAR",
            "max": [
                65534.0
            ],
            "min": [
                0.0
            ]
        },
        {
            "bufferView": 8,
            "byteOffset": 0,
            "componentType": 5126,
            "count": 31740,
            "type": "VEC3",
            "max": [
                22.519817352294923,
                38.300086975097659,
                49.53144073486328
            ],
            "min": [
                -17.316299438476564,
                -0.08477592468261719,
                -39.98141860961914
            ]
        },
        {
            "bufferView": 9,
            "byteOffset": 0,
            "componentType": 5126,
            "count": 31740,
            "type": "VEC3",
            "max": [
                0.9998447299003601,
                0.9999057650566101,
                0.999165415763855
            ],
            "min": [
                -0.9999507665634155,
                -0.999997079372406,
                -0.9994460344314575
            ]
        },
        {
            "bufferView": 10,
            "byteOffset": 0,
            "componentType": 5126,
            "count": 31740,
            "type": "VEC2",
            "max": [
                0.9980000257492065,
                0.955299973487854
            ],
            "min": [
                0.04479999840259552,
                0.022599995136260988
            ]
        },
        {
            "bufferView": 11,
            "byteOffset": 0,
            "componentType": 5123,
            "count": 31740,
            "type": "SCALAR",
            "max": [
                31739.0
            ],
            "min": [
                0.0
            ]
        },
        {
            "bufferView": 12,
            "byteOffset": 0,
            "componentType": 5126,
            "count": 65535,
            "type": "VEC3",
            "max": [
                22.902633666992189,
                39.342193603515628,
                50.0352668762207
            ],
            "min": [
                -15.198343276977539,
                -0.06482887268066406,
                -43.72732925415039
            ]
        },
        {
            "bufferView": 13,
            "byteOffset": 0,
            "componentType": 5126,
            "count": 65535,
            "type": "VEC3",
            "max": [
                0.9999499320983887,
                0.99994957447052,
                0.9998259544372559
            ],
            "min": [
                -0.9999781250953674,
                -0.9999946355819702,
                -0.9998816847801209
            ]
        },
        {
            "bufferView": 14,
            "byteOffset": 0,
            "componentType": 5126,
            "count": 65535,
            "type": "VEC2",
            "max": [
                0.9925000071525574,
                0.9599000215530396
            ],
            "min": [
                0.04899999871850014,
                0.022599995136260988
            ]
        },
        {
            "bufferView": 15,
            "byteOffset": 0,
            "componentType": 5123,
            "count": 65535,
            "type": "SCALAR",
            "max": [
                65534.0
            ],
            "min": [
                0.0
            ]
        },
        {
            "bufferView": 16,
            "byteOffset": 0,
            "componentType": 5126,
            "count": 65535,
            "type": "VEC3",
            "max": [
                20.872644424438478,
                40.14171600341797,
                49.360137939453128
            ],
            "min": [
                -14.661787033081055,
                -0.07979011535644531,
                -49.9647331237793
            ]
        },
        {
            "bufferView": 17,
            "byteOffset": 0,
            "componentType": 5126,
            "count": 65535,
            "type": "VEC3",
            "max": [
                0.999990701675415,
                0.9999511241912842,
                0.999707818031311
            ],
            "min": [
                -0.9999064207077026,
                -0.9999936819076538,
                -0.9998331069946289
            ]
        },
        {
            "bufferView": 18,
            "byteOffset": 0,
            "componentType": 5126,
            "count": 65535,
            "type": "VEC2",
            "max": [
                0.9847999811172485,
                0.910599946975708
            ],
            "min": [
                0.0052999998442828659,
                0.001999974250793457
            ]
        },
        {
            "bufferView": 19,
            "byteOffset": 0,
            "componentType": 5123,
            "count": 65535,
            "type": "SCALAR",
            "max": [
                65534.0
            ],
            "min": [
                0.0
            ]
        },
        {
            "bufferView": 20,
            "byteOffset": 0,
            "componentType": 5126,
            "count": 31740,
            "type": "VEC3",
            "max": [
                22.231515884399415,
                38.300086975097659,
                49.75312423706055
            ],
            "min": [
                -17.316299438476564,
                -0.08477592468261719,
                -44.090084075927737
            ]
        },
        {
            "bufferView": 21,
            "byteOffset": 0,
            "componentType": 5126,
            "count": 31740,
            "type": "VEC3",
            "max": [
                0.9999499320983887,
                0.9998053908348084,
                0.9974443316459656
            ],
            "min": [
                -0.9999781250953674,
                -0.999997079372406,
                -0.9994460344314575
            ]
        },
        {
            "bufferView": 22,
            "byteOffset": 0,
            "componentType": 5126,
            "count": 31740,
            "type": "VEC2",
            "max": [
                0.9980000257492065,
                0.955299973487854
            ],
            "min": [
                0.0020000000949949028,
                0.02890002727508545
            ]
        },
        {
            "bufferView": 23,
            "byteOffset": 0,
            "componentType": 5123,
            "count": 31740,
            "type": "SCALAR",
            "max": [
                31739.0
            ],
            "min": [
                0.0
            ]
        }
    ],
    "buffers": [
        {
            "byteLength": 11071088,
            "uri": "tennis_autosave_1.bin"
        }
    ],
    "bufferViews": [
        {
            "buffer": 0,
            "byteOffset": 0,
            "byteLength": 786420,
            "target": 34962
        },
        {
            "buffer": 0,
            "byteOffset": 786420,
            "byteLength": 786420,
            "target": 34962
        },
        {
            "buffer": 0,
            "byteOffset": 1572840,
            "byteLength": 524280,
            "target": 34962
        },
        {
            "buffer": 0,
            "byteOffset": 2097120,
            "byteLength": 131070,
            "target": 34963
        },
        {
            "buffer": 0,
            "byteOffset": 2228192,
            "byteLength": 786420,
            "target": 34962
        },
        {
            "buffer": 0,
            "byteOffset": 3014612,
            "byteLength": 786420,
            "target": 34962
        },
        {
            "buffer": 0,
            "byteOffset": 3801032,
            "byteLength": 524280,
            "target": 34962
        },
        {
            "buffer": 0,
            "byteOffset": 4325312,
            "byteLength": 131070,
            "target": 34963
        },
        {
            "buffer": 0,
            "byteOffset": 4456384,
            "byteLength": 380880,
            "target": 34962
        },
        {
            "buffer": 0,
            "byteOffset": 4837264,
            "byteLength": 380880,
            "target": 34962
        },
        {
            "buffer": 0,
            "byteOffset": 5218144,
            "byteLength": 253920,
            "target": 34962
        },
        {
            "buffer": 0,
            "byteOffset": 5472064,
            "byteLength": 63480,
            "target": 34963
        },
        {
            "buffer": 0,
            "byteOffset": 5535544,
            "byteLength": 786420,
            "target": 34962
        },
        {
            "buffer": 0,
            "byteOffset": 6321964,
            "byteLength": 786420,
            "target": 34962
        },
        {
            "buffer": 0,
            "byteOffset": 7108384,
            "byteLength": 524280,
            "target": 34962
        },
        {
            "buffer": 0,
            "byteOffset": 7632664,
            "byteLength": 131070,
            "target": 34963
        },
        {
            "buffer": 0,
            "byteOffset": 7763736,
            "byteLength": 786420,
            "target": 34962
        },
        {
            "buffer": 0,
            "byteOffset": 8550156,
            "byteLength": 786420,
            "target": 34962
        },
        {
            "buffer": 0,
            "byteOffset": 9336576,
            "byteLength": 524280,
            "target": 34962
        },
        {
            "buffer": 0,
            "byteOffset": 9860856,
            "byteLength": 131070,
            "target": 34963
        },
        {
            "buffer": 0,
            "byteOffset": 9991928,
            "byteLength": 380880,
            "target": 34962
        },
        {
            "buffer": 0,
            "byteOffset": 10372808,
            "byteLength": 380880,
            "target": 34962
        },
        {
            "buffer": 0,
            "byteOffset": 10753688,
            "byteLength": 253920,
            "target": 34962
        },
        {
            "buffer": 0,
            "byteOffset": 11007608,
            "byteLength": 63480,
            "target": 34963
        }
    ],
    "materials": [
        {
            "name": "Standardmaterial",
            "pbrMetallicRoughness": {
                "metallicFactor": 0.0
            }
        }
    ],
    "meshes": [
        {
            "name": "zapatillas_LO_02",
            "primitives": [
                {
                    "mode": 4,
                    "material": 0,
                    "indices": 3,
                    "attributes": {
                        "POSITION": 0,
                        "NORMAL": 1,
                        "TEXCOORD_0": 2
                    }
                },
                {
                    "mode": 4,
                    "material": 0,
                    "indices": 7,
                    "attributes": {
                        "POSITION": 4,
                        "NORMAL": 5,
                        "TEXCOORD_0": 6
                    }
                },
                {
                    "mode": 4,
                    "material": 0,
                    "indices": 11,
                    "attributes": {
                        "POSITION": 8,
                        "NORMAL": 9,
                        "TEXCOORD_0": 10
                    }
                },
                {
                    "mode": 4,
                    "material": 0,
                    "indices": 15,
                    "attributes": {
                        "POSITION": 12,
                        "NORMAL": 13,
                        "TEXCOORD_0": 14
                    }
                },
                {
                    "mode": 4,
                    "material": 0,
                    "indices": 19,
                    "attributes": {
                        "POSITION": 16,
                        "NORMAL": 17,
                        "TEXCOORD_0": 18
                    }
                },
                {
                    "mode": 4,
                    "material": 0,
                    "indices": 23,
                    "attributes": {
                        "POSITION": 20,
                        "NORMAL": 21,
                        "TEXCOORD_0": 22
                    }
                }
            ]
        }
    ],
    "nodes": [
        {
            "name": "root",
            "children": [
                1
            ]
        },
        {
            "name": "zapatillas_LO_02",
            "mesh": 0
        }
    ],
    "scenes": [
        {
            "nodes": [
                0
            ]
        }
    ],
    "scene": 0
}